<?xml version="1.0" encoding="UTF-8"?>
<svg id="Layer_1" data-name="Layer 1" xmlns="http://www.w3.org/2000/svg" viewBox="0 0 692.53 692.53">
  <defs>
    <style>
      .cls-1, .cls-2, .cls-3 {
        fill: #231f20;
      }

      .cls-4 {
        letter-spacing: 0em;
      }

      .cls-5 {
        fill: #fff;
      }

      .cls-5, .cls-2 {
        stroke: #231f20;
        stroke-miterlimit: 10;
      }

      .cls-3 {
        font-family: MyriadPro-Regular, 'Myriad Pro';
        font-size: 12px;
      }
    </style>
  </defs>
  <circle class="cls-2" cx="346.27" cy="346.27" r="345.77"/>
  <circle class="cls-5" cx="346.67" cy="346.51" r="298.91"/>
  <text class="cls-3" transform="translate(258.36 353.36)"><tspan class="cls-4" x="0" y="0">D</tspan><tspan x=".04" y="0">um</tspan></text>
  <g>
    <polygon class="cls-2" points="120.05 374.71 153.92 340.84 266.83 447.29 498.28 202.13 534.57 237.61 276.5 523.9 120.05 374.71"/>
    <g>
      <path class="cls-1" d="m255.91,421.45l-53.26-50.39,19.74-20.86c8.93-9.44,17.96-14.53,27.09-15.27,9.13-.73,18,2.97,26.6,11.11,8.61,8.14,12.84,16.99,12.71,26.54-.13,9.55-4.6,18.99-13.41,28.3l-19.47,20.58Zm8.96-32.33c7.24-7.66,5.74-16.33-4.5-26.02-5.12-4.84-9.79-7.51-14-7.99-4.22-.48-8.13,1.2-11.75,5.03l-5.34,5.65,30.44,28.79,5.16-5.46Z"/>
      <path class="cls-1" d="m288.3,280.52l15.39-16.27,33.57,31.76c6.86,6.49,10.14,13.49,9.83,20.99-.31,7.5-4.21,15.21-11.69,23.12-7.49,7.91-14.96,12.23-22.44,12.96-7.48.73-14.64-2.15-21.5-8.65l-33.57-31.76,15.39-16.27,34.54,32.67c2.98,2.82,5.78,4.26,8.37,4.3,2.6.04,5.2-1.31,7.79-4.06,2.59-2.74,3.8-5.41,3.61-8-.19-2.59-1.77-5.3-4.76-8.12l-34.54-32.67Z"/>
      <path class="cls-1" d="m411.46,257.01l-32.97-31.19,22.47,42.3-9.96,10.53-43.31-20.12,32.9,31.12-13.58,14.35-53.26-50.39,18.2-19.23,47.45,22.76-25.36-46.11,18.11-19.14,53.26,50.39-13.94,14.74Z"/>
      <path class="cls-1" d="m436.76,230.26l-53.26-50.39,21-22.2c6.34-6.7,12.47-10.82,18.39-12.35,5.92-1.53,11-.29,15.23,3.7,5.12,4.85,6.02,11.62,2.69,20.32,4.53-2.6,8.84-3.85,12.93-3.73,4.08.11,7.59,1.56,10.53,4.34,4.87,4.61,6.73,10.3,5.56,17.05s-5.24,13.84-12.25,21.24l-20.82,22.01Zm-12.83-51.13c2.23-2.36,3.48-4.65,3.75-6.88.27-2.22-.5-4.18-2.29-5.88s-3.7-2.26-5.88-1.85c-2.18.42-4.42,1.84-6.72,4.26l-5.25,5.55,11.04,10.45,5.34-5.65Zm22.92,20.6c2.72-2.87,4.23-5.61,4.53-8.23.3-2.61-.61-4.93-2.75-6.96-2.14-2.02-4.48-2.78-7.02-2.29-2.54.49-5.18,2.18-7.89,5.05l-5.88,6.22,13.13,12.42,5.88-6.22Z"/>
    </g>
    <g>
      <path class="cls-1" d="m343.28,515.47c3.6,4.12,4.96,8.79,4.05,14.02-.91,5.23-4.01,10.59-9.3,16.07-6.06,6.28-11.99,9.75-17.77,10.4-5.79.66-11.25-1.49-16.39-6.45-5.19-5.01-7.55-10.52-7.06-16.53.48-6.01,3.75-12.15,9.81-18.43,4.89-5.06,9.72-8.13,14.5-9.22,4.78-1.08,9.4-.15,13.86,2.8l-10.6,12.58c-2.42-1.61-4.54-2.39-6.34-2.32-1.81.07-3.55.96-5.22,2.7-2.26,2.34-3.17,4.79-2.74,7.33.43,2.55,2.26,5.37,5.47,8.48,3.27,3.16,6.22,4.91,8.83,5.26,2.61.35,5.09-.7,7.44-3.13,1.85-1.92,2.79-3.84,2.82-5.76.03-1.92-.85-3.96-2.63-6.13l11.26-11.66Z"/>
      <path class="cls-1" d="m383.42,497.03l-12.32-11.9-11.54,11.94,12.32,11.9-11.54,11.94-30.22-29.19,11.54-11.94,11.26,10.87,11.54-11.94-11.26-10.87,11.53-11.94,30.22,29.19-11.53,11.94Z"/>
      <path class="cls-1" d="m403.34,476.39l-30.22-29.19,28.02-29.02,6.31,6.09-16.49,17.07,5.38,5.19,15.47-16.02,6.31,6.09-15.47,16.02,5.93,5.72,17.64-18.27,5.29,7.14-28.16,29.16Z"/>
      <path class="cls-1" d="m461.35,393.2c3.6,4.12,4.96,8.79,4.05,14.02-.91,5.23-4.01,10.59-9.3,16.07-6.06,6.28-11.99,9.75-17.77,10.4-5.79.66-11.25-1.49-16.39-6.45-5.19-5.01-7.55-10.52-7.06-16.53.48-6.01,3.75-12.15,9.81-18.43,4.89-5.06,9.72-8.13,14.5-9.22,4.78-1.08,9.4-.15,13.86,2.8l-10.6,12.58c-2.42-1.61-4.54-2.39-6.34-2.32-1.81.07-3.55.96-5.22,2.7-2.26,2.34-3.17,4.79-2.74,7.33.43,2.55,2.26,5.37,5.47,8.48,3.27,3.16,6.22,4.91,8.83,5.26,2.61.35,5.09-.7,7.44-3.13,1.85-1.92,2.79-3.84,2.82-5.76.03-1.92-.85-3.96-2.63-6.13l11.26-11.66Z"/>
      <path class="cls-1" d="m502.91,373.29l-23.27-2.92-.95,6.15,10.92,10.55-11.26,11.66-30.22-29.19,11.26-11.66,11.13,10.75,1.9-24.24,11.54-11.94-1.86,24.96,33.03,3.24-12.21,12.65Z"/>
      <path class="cls-1" d="m519.56,356.05l-30.22-29.19,28.02-29.02,6.31,6.09-16.49,17.07,5.38,5.19,15.47-16.02,6.31,6.09-15.47,16.02,5.93,5.72,17.64-18.27,5.29,7.14-28.16,29.16Z"/>
      <path class="cls-1" d="m576.69,296.89l-17.17-3.82c-.24.31-.82.93-1.72,1.87l-3.12,3.23,10.75,10.38-10.86,11.24-30.22-29.19,15.33-15.88c5.34-5.53,10.31-9.01,14.91-10.45,4.61-1.44,8.4-.71,11.4,2.18,1.61,1.55,2.54,3.56,2.78,6.01.25,2.46-.21,5.21-1.36,8.27l21.28,3.72-12.01,12.44Zm-23.9-8.29c4.39-4.54,5.23-8.12,2.52-10.74-2.6-2.51-6.07-1.51-10.41,2.99l-3.87,4.01,7.96,7.68,3.8-3.94Z"/>
    </g>
  </g>
</svg>